<svg xmlns="http://www.w3.org/2000/svg" width="24" height="24" viewBox="0 0 24 24">
    <path d="M12 2C17.5 2 22 6.5 22 12C22 12.3 22 12.5 22 12.8C20.8 11.7 19.3 11 17.5 11C13.9 11 11 13.9 11 17.5C11 19.2 11.7 20.8 12.8 22C12.5 22 12.3 22 12 22C10.4 22 8.8 21.6 7.4 20.9L3.1 22C2.6 22.1 2.2 21.8 2.1 21.4C2.1 21.3 2.1 21.1 2.1 21L3.2 16.7C2.4 15.2 2 13.6 2 12C2 6.5 6.5 2 12 2L12 2Z"/>
    <path d="M22.5 17.5C22.5 20.2614 20.2614 22.5 17.5 22.5C14.7386 22.5 12.5 20.2614 12.5 17.5C12.5 14.7386 14.7386 12.5 17.5 12.5C20.2614 12.5 22.5 14.7386 22.5 17.5Z"/>
</svg>
