<svg xmlns="http://www.w3.org/2000/svg" width="20" height="20" viewBox="0 0 20 20">
    <path d="M12.4988 14.9991C12.7756 14.9991 13 15.2232 13 15.4996C13 15.7452 12.8227 15.9496 12.5889 15.9919L12.4988 16H2.5012C2.2244 16 2 15.776 2 15.4996C2 15.2539 2.1773 15.0496 2.4111 15.0072L2.5012 14.9991H12.4988ZM17.4991 9.0071C17.7757 9.0071 18 9.2311 18 9.5075C18 9.7531 17.8228 9.9575 17.5891 9.9998L17.4991 10.0079H2.501C2.2243 10.0079 2 9.7839 2 9.5075C2 9.2618 2.1772 9.0575 2.4109 9.0151L2.501 9.0071H17.4991ZM13.5002 3C13.7769 3 14.0012 3.224 14.0012 3.5004C14.0012 3.7461 13.824 3.9504 13.5903 3.9928L13.5002 4.0009H2.501C2.2243 4.0009 2 3.7768 2 3.5004C2 3.2548 2.1772 3.0504 2.4109 3.0081L2.501 3H13.5002V3Z"/>
</svg>
