<svg xmlns="http://www.w3.org/2000/svg" width="20" height="20" viewBox="0 0 20 20">
    <path d="M10 6.6016Q11.4062 6.6016 12.4023 7.5977Q13.3984 8.5938 13.3984 10Q13.3984 11.4062 12.4023 12.4023Q11.4062 13.3984 10 13.3984Q8.5938 13.3984 7.5977 12.4023Q6.6016 11.4062 6.6016 10Q6.6016 8.5938 7.5977 7.5977Q8.5938 6.6016 10 6.6016ZM10 5.0586Q9.4922 5.0586 9.0234 5.1562Q8.5352 5.2539 8.0859 5.4492Q7.6367 5.6445 7.2461 5.8984Q6.8555 6.1719 6.5039 6.5039Q6.1719 6.8555 5.918 7.2461Q5.6445 7.6367 5.4492 8.0859Q5.2539 8.5352 5.1562 9.0039Q5.0586 9.4922 5.0586 10Q5.0586 10.5078 5.1562 10.9766Q5.2539 11.4648 5.4492 11.9141Q5.6445 12.3633 5.8984 12.7539Q6.1719 13.1445 6.5039 13.4961Q6.8555 13.8281 7.2461 14.082Q7.6367 14.3555 8.0859 14.5508Q8.5352 14.7461 9.0039 14.8438Q9.4922 14.9414 10 14.9414Q10.5078 14.9414 10.9766 14.8438Q11.4648 14.7461 11.9141 14.5508Q12.3633 14.3555 12.7539 14.1016Q13.1445 13.8281 13.4961 13.4961Q13.8281 13.1445 14.082 12.7539Q14.3555 12.3633 14.5508 11.9141Q14.7461 11.4648 14.8438 10.9961Q14.9414 10.5078 14.9414 10Q14.9414 9.4922 14.8438 9.0234Q14.7461 8.5352 14.5508 8.0859Q14.3555 7.6367 14.1016 7.2461Q13.8281 6.8555 13.4961 6.5039Q13.1445 6.1719 12.7539 5.918Q12.3633 5.6445 11.9141 5.4492Q11.4648 5.2539 10.9961 5.1562Q10.5078 5.0586 10 5.0586ZM15.3711 1.543Q15.9961 1.543 16.543 1.7773Q17.1094 2.0117 17.5586 2.4414Q17.9883 2.8906 18.2227 3.4375Q18.457 4.0039 18.457 4.6289V15.3711Q18.457 15.9961 18.2227 16.543Q17.9883 17.1094 17.5586 17.5586Q17.1094 17.9883 16.5625 18.2227Q15.9961 18.457 15.3711 18.457H4.6289Q4.0039 18.457 3.457 18.2227Q2.8906 17.9883 2.4414 17.5586Q2.0117 17.1094 1.7773 16.5625Q1.543 15.9961 1.543 15.3711V4.6289Q1.543 4.0039 1.7773 3.457Q2.0117 2.8906 2.4414 2.4414Q2.8906 2.0117 3.4375 1.7773Q4.0039 1.543 4.6289 1.543H15.3711ZM15.3711 0H4.6289Q3.6719 0 2.832 0.3711Q1.9922 0.7227 1.3672 1.3477Q0.7227 1.9922 0.3711 2.832Q0 3.6719 0 4.6289V15.3711Q0 16.3281 0.3711 17.168Q0.7227 18.0078 1.3477 18.6328Q1.9922 19.2773 2.832 19.6289Q3.6719 20 4.6289 20H15.3711Q16.3281 20 17.168 19.6289Q18.0078 19.2773 18.6328 18.6523Q19.2773 18.0078 19.6289 17.168Q20 16.3281 20 15.3711V4.6289Q20 3.6719 19.6289 2.832Q19.2773 1.9922 18.6523 1.3672Q18.0078 0.7227 17.168 0.3711Q16.3281 0 15.3711 0Z"/>
</svg>
