<svg width="20" height="20" viewBox="0 0 20 20" fill="none" xmlns="http://www.w3.org/2000/svg">
<path fill-rule="evenodd" clip-rule="evenodd" d="M4.5 10.7929L6.85355 13.1465C7.04882 13.3417 7.04882 13.6583 6.85355 13.8536C6.65829 14.0488 6.34171 14.0488 6.14645 13.8536L5 12.7071V15C5 15.4229 5.10539 15.6483 5.22855 15.7715C5.35172 15.8946 5.57708 16 6 16H8.49916L8.5 16.5L8.49998 17H6C5.42293 17 4.89829 16.8554 4.52145 16.4786C4.14461 16.1017 4 15.5771 4 15V12.7071L2.85355 13.8536C2.65829 14.0488 2.34171 14.0488 2.14645 13.8536C1.95118 13.6583 1.95118 13.3417 2.14645 13.1465L4.5 10.7929ZM8.5 16.5L8.49998 17C8.77613 17 9 16.7762 9 16.5C9 16.2239 8.77531 16 8.49916 16L8.5 16.5Z" fill="black"/>
<path fill-rule="evenodd" clip-rule="evenodd" d="M15.5 9.20709L13.1464 6.85354C12.9512 6.65828 12.9512 6.34169 13.1464 6.14643C13.3417 5.95117 13.6583 5.95117 13.8536 6.14643L15 7.29288L15 4.99999C15 4.57706 14.8946 4.3517 14.7714 4.22854C14.6483 4.10538 14.4229 3.99999 14 3.99999L11.5008 3.99999L11.5 3.49999L11.5 2.99999L14 2.99999C14.5771 2.99999 15.1017 3.14459 15.4786 3.52143C15.8554 3.89827 16 4.42291 16 4.99999L16 7.29288L17.1464 6.14643C17.3417 5.95117 17.6583 5.95117 17.8536 6.14643C18.0488 6.34169 18.0488 6.65828 17.8536 6.85354L15.5 9.20709ZM11.5 3.49999L11.5 2.99999C11.2239 2.99999 11 3.22384 11 3.49999C11 3.77613 11.2247 3.99999 11.5008 3.99999L11.5 3.49999Z" fill="black"/>
<path fill-rule="evenodd" clip-rule="evenodd" d="M7 3H4C3.44772 3 3 3.44772 3 4V7C3 7.55228 3.44772 8 4 8H7C7.55228 8 8 7.55228 8 7V4C8 3.44772 7.55228 3 7 3ZM4 2C2.89543 2 2 2.89543 2 4V7C2 8.10457 2.89543 9 4 9H7C8.10457 9 9 8.10457 9 7V4C9 2.89543 8.10457 2 7 2H4Z" fill="black"/>
<path fill-rule="evenodd" clip-rule="evenodd" d="M16 12H13C12.4477 12 12 12.4477 12 13V16C12 16.5523 12.4477 17 13 17H16C16.5523 17 17 16.5523 17 16V13C17 12.4477 16.5523 12 16 12ZM13 11C11.8954 11 11 11.8954 11 13V16C11 17.1046 11.8954 18 13 18H16C17.1046 18 18 17.1046 18 16V13C18 11.8954 17.1046 11 16 11H13Z" fill="black"/>
</svg>
